<svg width="34" height="43" viewBox="0 0 34 43" fill="#D62828" xmlns="http://www.w3.org/2000/svg">
<g clip-path="url(#clip0_5_2400)">
<path d="M27.4267 3.29667H26.18V1.72C26.18 1.24222 26.0478 0.836113 25.7833 0.501667C25.5189 0.167225 25.1978 0 24.82 0C24.4422 0 24.1211 0.167225 23.8567 0.501667C23.5922 0.836113 23.46 1.24222 23.46 1.72V3.29667H10.54V1.72C10.54 1.24222 10.4078 0.836113 10.1433 0.501667C9.87889 0.167225 9.55778 0 9.18 0C8.80222 0 8.48111 0.167225 8.21667 0.501667C7.95222 0.836113 7.82 1.24222 7.82 1.72V3.29667H6.57333C5.36444 3.29667 4.26889 3.67889 3.28667 4.44333C2.30444 5.20778 1.51111 6.21111 0.906667 7.45333C0.302222 8.69556 0 10.0811 0 11.61V34.6867C0 36.2156 0.302222 37.6011 0.906667 38.8433C1.51111 40.0856 2.30444 41.0889 3.28667 41.8533C4.26889 42.6178 5.36444 43 6.57333 43H27.4267C28.6356 43 29.7311 42.6178 30.7133 41.8533C31.6956 41.0889 32.4889 40.0856 33.0933 38.8433C33.6978 37.6011 34 36.2156 34 34.6867V11.61C34 10.0811 33.6978 8.69556 33.0933 7.45333C32.4889 6.21111 31.6956 5.20778 30.7133 4.44333C29.7311 3.67889 28.6356 3.29667 27.4267 3.29667ZM6.57333 6.73667H7.82V9.89C7.82 10.3678 7.95222 10.7739 8.21667 11.1083C8.48111 11.4428 8.80222 11.61 9.18 11.61C9.55778 11.61 9.87889 11.4428 10.1433 11.1083C10.4078 10.7739 10.54 10.3678 10.54 9.89V6.73667H23.46V9.89C23.46 10.3678 23.5922 10.7739 23.8567 11.1083C24.1211 11.4428 24.4422 11.61 24.82 11.61C25.1978 11.61 25.5189 11.4428 25.7833 11.1083C26.0478 10.7739 26.18 10.3678 26.18 9.89V6.73667H27.4267C28.4844 6.73667 29.41 7.21444 30.2033 8.17C30.9967 9.12556 31.3933 10.2722 31.3933 11.61V13.1867H2.60667V11.61C2.60667 10.2722 3.00333 9.12556 3.79667 8.17C4.59 7.21444 5.51556 6.73667 6.57333 6.73667ZM27.4267 39.7033H6.57333C5.51556 39.7033 4.59 39.2017 3.79667 38.1983C3.00333 37.195 2.60667 36.0244 2.60667 34.6867V16.6267H31.3933V34.6867C31.3933 36.0244 30.9967 37.195 30.2033 38.1983C29.41 39.2017 28.4844 39.7033 27.4267 39.7033ZM11.7867 23.22C11.7867 23.6978 11.6544 24.08 11.39 24.3667C11.1256 24.6533 10.8044 24.7967 10.4267 24.7967H7.82C7.44222 24.7967 7.14 24.6533 6.91333 24.3667C6.68667 24.08 6.57333 23.6978 6.57333 23.22C6.57333 22.7422 6.68667 22.3361 6.91333 22.0017C7.14 21.6672 7.44222 21.5 7.82 21.5H10.4267C10.8044 21.5 11.1256 21.6672 11.39 22.0017C11.6544 22.3361 11.7867 22.7422 11.7867 23.22ZM27.4267 23.22C27.4267 23.6978 27.3133 24.08 27.0867 24.3667C26.86 24.6533 26.5578 24.7967 26.18 24.7967H23.5733C23.1956 24.7967 22.8744 24.6533 22.61 24.3667C22.3456 24.08 22.2133 23.6978 22.2133 23.22C22.2133 22.7422 22.3456 22.3361 22.61 22.0017C22.8744 21.6672 23.1956 21.5 23.5733 21.5H26.18C26.5578 21.5 26.86 21.6672 27.0867 22.0017C27.3133 22.3361 27.4267 22.7422 27.4267 23.22ZM19.6067 23.22C19.6067 23.6978 19.4744 24.08 19.21 24.3667C18.9456 24.6533 18.6244 24.7967 18.2467 24.7967H15.64C15.3378 24.7967 15.0544 24.6533 14.79 24.3667C14.5256 24.08 14.3933 23.6978 14.3933 23.22C14.3933 22.7422 14.5256 22.3361 14.79 22.0017C15.0544 21.6672 15.3378 21.5 15.64 21.5H18.2467C18.6244 21.5 18.9456 21.6672 19.21 22.0017C19.4744 22.3361 19.6067 22.7422 19.6067 23.22ZM11.7867 33.11C11.7867 33.5878 11.6544 33.9939 11.39 34.3283C11.1256 34.6628 10.8044 34.83 10.4267 34.83H7.82C7.44222 34.83 7.14 34.6628 6.91333 34.3283C6.68667 33.9939 6.57333 33.5878 6.57333 33.11C6.57333 32.6322 6.68667 32.2261 6.91333 31.8917C7.14 31.5572 7.44222 31.39 7.82 31.39H10.4267C10.8044 31.39 11.1256 31.5572 11.39 31.8917C11.6544 32.2261 11.7867 32.6322 11.7867 33.11ZM27.4267 33.11C27.4267 33.5878 27.3133 33.9939 27.0867 34.3283C26.86 34.6628 26.5578 34.83 26.18 34.83H23.5733C23.1956 34.83 22.8744 34.6628 22.61 34.3283C22.3456 33.9939 22.2133 33.5878 22.2133 33.11C22.2133 32.6322 22.3456 32.2261 22.61 31.8917C22.8744 31.5572 23.1956 31.39 23.5733 31.39H26.18C26.5578 31.39 26.86 31.5572 27.0867 31.8917C27.3133 32.2261 27.4267 32.6322 27.4267 33.11ZM19.6067 33.11C19.6067 33.5878 19.4744 33.9939 19.21 34.3283C18.9456 34.6628 18.6244 34.83 18.2467 34.83H15.64C15.3378 34.83 15.0544 34.6628 14.79 34.3283C14.5256 33.9939 14.3933 33.5878 14.3933 33.11C14.3933 32.6322 14.5256 32.2261 14.79 31.8917C15.0544 31.5572 15.3378 31.39 15.64 31.39H18.2467C18.6244 31.39 18.9456 31.5572 19.21 31.8917C19.4744 32.2261 19.6067 32.6322 19.6067 33.11Z"/>
</g>
<defs>
<clipPath id="clip0_5_2400">
<rect width="34" height="43" fill="white" transform="matrix(1 0 0 -1 0 43)"/>
</clipPath>
</defs>
</svg>
