<svg width="24" height="24" viewBox="0 0 24 24" fill="none" xmlns="http://www.w3.org/2000/svg">
<path d="M5.50001 15C6.3751 14.9951 7.21678 14.6634 7.86001 14.07L14.12 17.65C14.0403 17.9263 13.9999 18.2125 14 18.5C13.9936 19.3116 14.267 20.1005 14.7742 20.7341C15.2814 21.3676 15.9914 21.8071 16.7847 21.9784C17.578 22.1497 18.406 22.0425 19.1295 21.6747C19.853 21.307 20.4276 20.7012 20.7567 19.9593C21.0858 19.2174 21.1492 18.3849 20.9362 17.6017C20.7233 16.8186 20.247 16.1328 19.5875 15.6597C18.9281 15.1866 18.1258 14.9552 17.3157 15.0045C16.5057 15.0537 15.7373 15.3806 15.14 15.93L8.88001 12.35C8.95556 12.1036 8.99596 11.8477 9.00001 11.59L15.15 8.07002C15.7441 8.60686 16.5047 8.92311 17.3042 8.96572C18.1038 9.00833 18.8937 8.77472 19.5414 8.30407C20.1892 7.83342 20.6554 7.15434 20.8619 6.38074C21.0684 5.60714 21.0026 4.78605 20.6756 4.0552C20.3485 3.32434 19.7801 2.72816 19.0657 2.36665C18.3513 2.00513 17.5343 1.90027 16.7517 2.06964C15.9691 2.23902 15.2686 2.67233 14.7676 3.29691C14.2666 3.92149 13.9956 4.69934 14 5.50002C14.0034 5.78733 14.0437 6.073 14.12 6.35002L8.43001 9.60002C8.10032 9.08998 7.64358 8.6745 7.10469 8.39442C6.56581 8.11435 5.96331 7.97932 5.35644 8.00261C4.74956 8.02589 4.15919 8.20669 3.64334 8.52723C3.1275 8.84778 2.70394 9.29703 2.4143 9.83084C2.12466 10.3646 1.97891 10.9646 1.99137 11.5718C2.00383 12.179 2.17407 12.7725 2.48536 13.294C2.79665 13.8155 3.23828 14.247 3.76684 14.5461C4.2954 14.8452 4.89269 15.0016 5.50001 15ZM17.5 17C17.7967 17 18.0867 17.088 18.3334 17.2528C18.58 17.4176 18.7723 17.6519 18.8858 17.926C18.9994 18.2001 19.0291 18.5017 18.9712 18.7927C18.9133 19.0836 18.7704 19.3509 18.5607 19.5607C18.3509 19.7705 18.0836 19.9133 17.7926 19.9712C17.5017 20.0291 17.2001 19.9994 16.926 19.8858C16.6519 19.7723 16.4176 19.58 16.2528 19.3334C16.088 19.0867 16 18.7967 16 18.5C16 18.1022 16.158 17.7207 16.4394 17.4394C16.7207 17.1581 17.1022 17 17.5 17ZM17.5 4.00002C17.7967 4.00002 18.0867 4.08799 18.3334 4.25282C18.58 4.41764 18.7723 4.65191 18.8858 4.92599C18.9994 5.20008 19.0291 5.50168 18.9712 5.79265C18.9133 6.08363 18.7704 6.3509 18.5607 6.56068C18.3509 6.77046 18.0836 6.91332 17.7926 6.9712C17.5017 7.02908 17.2001 6.99937 16.926 6.88584C16.6519 6.77231 16.4176 6.58005 16.2528 6.33337C16.088 6.0867 16 5.79669 16 5.50002C16 5.10219 16.158 4.72066 16.4394 4.43936C16.7207 4.15805 17.1022 4.00002 17.5 4.00002ZM5.50001 10C5.79668 10 6.08669 10.088 6.33337 10.2528C6.58004 10.4176 6.7723 10.6519 6.88583 10.926C6.99936 11.2001 7.02907 11.5017 6.97119 11.7927C6.91331 12.0836 6.77045 12.3509 6.56067 12.5607C6.35089 12.7705 6.08362 12.9133 5.79265 12.9712C5.50167 13.0291 5.20007 12.9994 4.92599 12.8858C4.6519 12.7723 4.41763 12.58 4.25281 12.3334C4.08798 12.0867 4.00001 11.7967 4.00001 11.5C4.00001 11.1022 4.15805 10.7207 4.43935 10.4394C4.72065 10.1581 5.10219 10 5.50001 10Z" fill="black"/>
</svg>
