<svg width="14" height="15" viewBox="0 0 14 15" fill="none" xmlns="http://www.w3.org/2000/svg">
<path d="M13.6111 0.299805H5.05557C4.84061 0.299805 4.66667 0.473748 4.66667 0.688706C4.66667 0.903664 4.84061 1.07761 5.05557 1.07761H12.6723L0.113941 13.636C-0.0379804 13.7879 -0.0379804 14.034 0.113941 14.1859C0.189884 14.2618 0.289415 14.2998 0.38891 14.2998C0.488405 14.2998 0.5879 14.2618 0.663879 14.1859L13.2222 1.6275V9.24428C13.2222 9.45924 13.3961 9.63317 13.6111 9.63317C13.8261 9.63317 14 9.45924 14 9.24428V0.688706C14 0.473748 13.826 0.299805 13.6111 0.299805Z" fill="#050B20"/>
</svg>
